<svg xmlns="http://www.w3.org/2000/svg" width="61.583" height="58.501" viewBox="0 0 61.583 58.501"><defs><style>.a{fill:#006400;}</style></defs><g transform="translate(-7 -13)"><g transform="translate(5 -8)"><g transform="translate(2 21)"><path class="a" d="M58.967,12.813H15.95a2.621,2.621,0,0,0-2.618,2.618V27.3l-1.967-2.951a3.042,3.042,0,0,0-4.107-.924L3.212,25.855A5.938,5.938,0,0,0,.5,29.373C-.977,34.748.118,44.01,13.712,57.606c10.81,10.8,18.871,13.708,24.426,13.708a14.343,14.343,0,0,0,3.809-.5,5.948,5.948,0,0,0,3.519-2.709l2.43-4.051a3.042,3.042,0,0,0-.924-4.1L37.282,53.5a3.058,3.058,0,0,0-4.094.664l-2.821,3.627a.982.982,0,0,1-1.257.266l-.537-.3c-1.767-.963-3.966-2.162-8.407-6.6-.481-.481-.916-.93-1.324-1.36H58.967a2.616,2.616,0,0,0,2.618-2.606V15.431A2.621,2.621,0,0,0,58.967,12.813ZM27.59,59.56l.522.286a3.024,3.024,0,0,0,3.876-.8l2.821-3.627a1,1,0,0,1,1.335-.217l9.691,6.46a.992.992,0,0,1,.3,1.335L43.7,67.049a3.9,3.9,0,0,1-2.3,1.786c-4.853,1.335-13.346.205-26.237-12.686S1.151,34.765,2.483,29.916a3.9,3.9,0,0,1,1.785-2.3l4.051-2.431a.993.993,0,0,1,1.335.3l6.463,9.691A1,1,0,0,1,15.9,36.51l-3.628,2.822a3.024,3.024,0,0,0-.8,3.875l.287.522c1.027,1.883,2.3,4.226,6.955,8.876S25.709,58.533,27.59,59.56ZM59.532,47.187a.561.561,0,0,1-.565.554H16.989a25.891,25.891,0,0,1-3.426-4.994l-.3-.539a.979.979,0,0,1,.265-1.255l3.628-2.822a3.057,3.057,0,0,0,.664-4.094l-2.439-3.661V15.431a.558.558,0,0,1,.565-.565H58.967a.558.558,0,0,1,.565.565V47.187Z" transform="translate(-0.001 -12.813)"/><path class="a" d="M185.9,50.8,168.742,63.809a1.385,1.385,0,0,1-1.628,0L149.961,50.8a1.027,1.027,0,0,0-1.241,1.636l17.154,13.012a3.455,3.455,0,0,0,4.107,0L187.14,52.433A1.027,1.027,0,0,0,185.9,50.8Z" transform="translate(-130.47 -46.043)"/><path class="a" d="M159.6,172.7,149.086,183.96a1.027,1.027,0,0,0,1.5,1.4L161.1,174.093a1.027,1.027,0,0,0-1.5-1.4Z" transform="translate(-130.907 -153.21)"/><path class="a" d="M371.729,172.405a1.027,1.027,0,0,0-1.5,1.4l10.514,11.262a1.027,1.027,0,1,0,1.5-1.4Z" transform="translate(-325.443 -152.917)"/></g></g></g></svg>