<svg xmlns="http://www.w3.org/2000/svg" width="59.674" height="59.674" viewBox="0 0 59.674 59.674"><defs><style>.a{fill:#006400;}</style></defs><g transform="translate(0)"><path class="a" d="M226.887,37.775A2.887,2.887,0,1,0,224,34.887,2.891,2.891,0,0,0,226.887,37.775Zm0-3.85a.962.962,0,1,1-.962.962A.964.964,0,0,1,226.887,33.925Zm0,0" transform="translate(-197.05 -28.15)"/><path class="a" d="M217.625,107.55H215.7V96H208v5.775h1.925v5.775H208v5.775h9.625ZM215.7,111.4h-5.775v-1.925h1.925V99.85h-1.925V97.925h3.85v11.55H215.7Zm0,0" transform="translate(-182.975 -84.45)"/><path class="a" d="M55.823,13.475V11.55H45.474a16.361,16.361,0,0,0-31.275,0H3.849v1.925H0V55.824H25.121a4.812,4.812,0,0,0,9.43,0H59.673V13.475ZM29.836,1.925a14.437,14.437,0,0,1,2.85,28.591l-.461.092-2.389,4.777-2.388-4.777-.461-.092A14.437,14.437,0,0,1,29.836,1.925Zm4.812,30.068A16.134,16.134,0,0,0,37.525,30.8H50.048v11.55h-15.4ZM5.774,13.475h7.97A16.279,16.279,0,0,0,26.143,32.3l3.693,7.386,2.887-5.776V44.274h19.25v-15.4H40.347a16.18,16.18,0,0,0,5.581-15.4H53.9V50.049H30.8V41.387H28.874v8.662H5.774ZM57.748,53.9H32.724v.962a2.887,2.887,0,0,1-5.775,0V53.9H1.924V15.4H3.849V51.974H55.823V15.4h1.925Zm0,0" transform="translate(0.001)"/><path class="a" d="M64,384H83.25v1.925H64Zm0,0" transform="translate(-56.3 -337.801)"/><path class="a" d="M64,352H83.25v1.925H64Zm0,0" transform="translate(-56.3 -309.651)"/><path class="a" d="M64,320H83.25v1.925H64Zm0,0" transform="translate(-56.3 -281.501)"/><path class="a" d="M64,288H81.325v1.925H64Zm0,0" transform="translate(-56.3 -253.351)"/><path class="a" d="M272,384h19.25v1.925H272Zm0,0" transform="translate(-239.275 -337.801)"/></g></svg>