<svg xmlns="http://www.w3.org/2000/svg" width="61.599" height="60.22" viewBox="0 0 61.599 60.22"><defs><style>.a{fill:#006400;}</style></defs><g transform="translate(0)"><g transform="translate(38.115 3.036)"><path class="a" d="M325.572,30.963H316.8V32.74h8.769a1.221,1.221,0,0,1,1.22,1.22,1.2,1.2,0,0,1-.134.555l1.58.813a3,3,0,0,0-2.666-4.365Z" transform="translate(-316.803 -30.963)"/></g><g transform="translate(33.343 3.036)"><rect class="a" width="2.208" height="1.777"/></g><g transform="translate(11.032 18.938)"><rect class="a" width="31.396" height="1.777"/></g><g transform="translate(11.032 51.331)"><rect class="a" width="31.396" height="1.777"/></g><g transform="translate(49.066 19.514)"><path class="a" d="M411.63,167.922l-1.257,1.257,1.1,1.105-3.649,3.649,1.257,1.257,4.906-4.906Z" transform="translate(-407.829 -167.922)"/></g><g transform="translate(46.771 26.637)"><g transform="translate(0 0)"><rect class="a" width="1.674" height="1.777" transform="translate(0 1.184) rotate(-45)"/></g></g><g transform="translate(0 0)"><path class="a" d="M60.164,20.034l-.657-.657a4.9,4.9,0,0,0-6.927,0l-.643.643L50.68,21.276l-3.257,3.257V17.77a6.032,6.032,0,0,0-.54-12.041H6.033A6.04,6.04,0,0,0,0,11.762V59.8H5.144v6.153H47.423V39.7L58.265,28.861l.949-.95.307-.307.643-.643a4.9,4.9,0,0,0,0-6.927ZM10.3,7.506H46.884a4.256,4.256,0,0,1,0,8.512H10.3a6.022,6.022,0,0,0,0-8.512Zm-5.16,8.512h0v42H1.777V11.762a4.256,4.256,0,1,1,4.256,4.256Zm40.5,48.154H6.921V17.8H45.646V26.31l-3.853,3.852H11.032V31.94H40.017L36.3,35.659H11.032v1.777H34.521L30.8,41.156H11.032v1.777H29.024l-.31.31L27.7,46.652H11.032v1.777H27.177l-1.1,3.719H11.032v1.777h31.4V52.149H31.842L36.3,50.828l2.4-2.4h3.73V46.652H40.474l5.172-5.172V64.172ZM29.929,45.4l4.217,4.217-5.993,1.777Zm5.9,3.387-5.071-5.071L51.937,22.533,57.008,27.6ZM58.908,25.705l-.643.643-5.071-5.071.643-.643a3.125,3.125,0,0,1,4.414,0l.657.657a3.121,3.121,0,0,1,0,4.414Z" transform="translate(0 -5.729)"/></g></g></svg>