<svg xmlns="http://www.w3.org/2000/svg" width="57.183" height="57.183" viewBox="0 0 57.183 57.183"><defs><style>.a{fill:#006400;}</style></defs><g transform="translate(-16 -16)"><path class="a" d="M381.986,168h-3.4A2.594,2.594,0,0,0,376,170.591v1.489a2.594,2.594,0,0,0,2.591,2.591h3.4a2.594,2.594,0,0,0,2.591-2.591v-1.489A2.594,2.594,0,0,0,381.986,168Zm.685,4.08a.686.686,0,0,1-.685.685h-3.4a.686.686,0,0,1-.685-.685v-1.489a.686.686,0,0,1,.685-.685h3.4a.686.686,0,0,1,.685.685Z" transform="translate(-317.113 -133.892)"/><path class="a" d="M67.464,61.746H54.122V44.591H67.457a3.824,3.824,0,0,0,3.819-3.819V25.538a3.824,3.824,0,0,0-3.819-3.819H54.122v-.009A5.716,5.716,0,0,0,48.412,16H21.718A5.725,5.725,0,0,0,16,21.718V32.2a.953.953,0,0,0,.953.953H25.53v34.31a5.725,5.725,0,0,0,5.718,5.718H52.155a5.787,5.787,0,0,0,5.688-4.765H72.23a.953.953,0,0,0,.953-.953,5.725,5.725,0,0,0-5.718-5.718Zm-.007-19.061H40.786a1.915,1.915,0,0,1-1.913-1.913V31.249h30.5v9.523A1.916,1.916,0,0,1,67.457,42.685ZM38.873,27.437h30.5v1.906h-30.5Zm30.5-1.906h-30.5a1.915,1.915,0,0,1,1.913-1.906H67.457A1.915,1.915,0,0,1,69.37,25.53ZM17.906,21.718a3.812,3.812,0,0,1,7.624,0v9.53H17.906Zm9.53,45.746V21.718a5.7,5.7,0,0,0-1.461-3.812H48.412a3.808,3.808,0,0,1,3.8,3.8v.009H40.786a3.824,3.824,0,0,0-3.819,3.819V40.772a3.824,3.824,0,0,0,3.819,3.819H52.216V61.746H40.779a5.725,5.725,0,0,0-5.718,5.718,3.812,3.812,0,1,1-7.624,0Zm24.718,3.812H35.506a5.7,5.7,0,0,0,1.461-3.812,3.812,3.812,0,1,1,7.624,0,.953.953,0,0,0,.953.953H55.892A3.879,3.879,0,0,1,52.155,71.277Zm-5.737-4.765a5.7,5.7,0,0,0-1.38-2.859H67.464a3.819,3.819,0,0,1,3.692,2.859Z" transform="translate(0 0)"/><path class="a" d="M128.953,173.718h3.812a.953.953,0,0,0,.953-.953v-3.812a.953.953,0,0,0-.953-.953h-3.812a.953.953,0,0,0-.953.953v3.812A.953.953,0,0,0,128.953,173.718Zm.953-3.812h1.906v1.906h-1.906Z" transform="translate(-98.657 -133.892)"/><path class="a" d="M128.953,261.718h3.812a.953.953,0,0,0,.953-.953v-3.812a.953.953,0,0,0-.953-.953h-3.812a.953.953,0,0,0-.953.953v3.812A.953.953,0,0,0,128.953,261.718Zm.953-3.812h1.906v1.906h-1.906Z" transform="translate(-98.657 -211.409)"/><path class="a" d="M133.718,348.765v-3.812a.953.953,0,0,0-.953-.953h-3.812a.953.953,0,0,0-.953.953v3.812a.953.953,0,0,0,.953.953h3.812A.953.953,0,0,0,133.718,348.765Zm-1.906-.953h-1.906v-1.906h1.906Z" transform="translate(-98.657 -288.925)"/><rect class="a" width="13" height="2" transform="translate(37.591 56.591)"/><rect class="a" width="13" height="3" transform="translate(37.591 45.591)"/></g></svg>