<svg xmlns="http://www.w3.org/2000/svg" width="61.599" height="58.289" viewBox="0 0 61.599 58.289"><defs><style>.a{fill:#006400;}</style></defs><g transform="translate(0)"><path class="a" d="M123.768,291.82a1.2,1.2,0,1,0-1.643-.44A1.2,1.2,0,0,0,123.768,291.82Zm0,0" transform="translate(-107.29 -254.736)"/><path class="a" d="M11.548,65.054l6.059,10.495a4.812,4.812,0,1,0,8.335-4.812l-3.609-6.252,3.126-1.8a1.2,1.2,0,0,0,.44-1.643l-1.565-2.71,23.044-4.52A3.609,3.609,0,0,0,50.3,48.4l-4-6.925,2.555-3.87a1.2,1.2,0,0,0,.038-1.265L46.492,32.17a1.206,1.206,0,0,0-1.114-.6l-4.629.278L36.311,24.16a3.578,3.578,0,0,0-3.081-1.8h-.046a3.578,3.578,0,0,0-3.039,1.664L14.429,44.041,4.211,49.94a8.422,8.422,0,0,0,7.337,15.114ZM23.858,71.94a2.406,2.406,0,0,1-4.168,2.406l-6.016-10.42,4.168-2.406L23.858,71.94ZM21.129,62.4l-1.2-2.084,2.084-1.2,1.2,2.084ZM44.78,34.017l1.663,2.88L44.96,39.143l-2.866-4.964ZM32.158,25.339a1.2,1.2,0,0,1,2.069.024L48.22,49.6a1.2,1.2,0,0,1-1.012,1.8,4.415,4.415,0,0,0-.66.112l-14.8-25.639c.311-.4.351-.438.412-.539Zm-2.013,2.579L44.052,52.006,23.062,56.123,16.68,45.069ZM3.212,60.241a6.011,6.011,0,0,1,2.2-8.217l9.377-5.414,6.016,10.419L11.43,62.443a6.023,6.023,0,0,1-8.217-2.2Zm0,0" transform="translate(0 -19.666)"/><path class="a" d="M50.3,310.174a1.2,1.2,0,0,0-1.643-.44l-2.084,1.2a1.2,1.2,0,0,1-1.643-.44,1.2,1.2,0,0,0-2.084,1.2,3.614,3.614,0,0,0,4.93,1.321l2.084-1.2a1.2,1.2,0,0,0,.44-1.643Zm0,0" transform="translate(-37.547 -272.328)"/><path class="a" d="M443.6,42.633l-6.7,3.731a1.2,1.2,0,1,0,1.17,2.1l6.7-3.731a1.2,1.2,0,0,0-1.17-2.1Zm0,0" transform="translate(-383.787 -37.37)"/><path class="a" d="M446.227,137.908l-4.648-1.245a1.2,1.2,0,1,0-.623,2.324l4.649,1.245a1.2,1.2,0,1,0,.622-2.324Zm0,0" transform="translate(-387.119 -120.184)"/><path class="a" d="M384.78.892l-1.247,4.649a1.2,1.2,0,1,0,2.324.623L387.1,1.515A1.2,1.2,0,1,0,384.78.892Zm0,0" transform="translate(-337.354 0)"/></g></svg>