<svg xmlns="http://www.w3.org/2000/svg" width="60.791" height="60.776" viewBox="0 0 60.791 60.776">
  <g id="energy" transform="translate(-54.209 67.841)">
    <path id="Path_1622" data-name="Path 1622" d="M60.791,23.281c0-2.715-1.645-6.749-4.89-11.99A120.241,120.241,0,0,0,48.626.991a2.482,2.482,0,0,0-3.867,0,116.983,116.983,0,0,0-7.723,11.033.89.89,0,1,0,1.525.92A115.173,115.173,0,0,1,46.16,2.09a.633.633,0,0,1,1.065,0,118.418,118.418,0,0,1,7.162,10.138c3.025,4.885,4.624,8.707,4.624,11.052A12.318,12.318,0,0,1,47.551,35.569a64,64,0,0,0-4.985-9.483,162.323,162.323,0,0,0-9.8-13.881,3.036,3.036,0,0,0-4.732,0c-.646.823-1.472,1.893-2.407,3.14A103.04,103.04,0,0,0,16.033.991a2.482,2.482,0,0,0-3.867,0,120.253,120.253,0,0,0-7.275,10.3C1.645,16.532,0,20.566,0,23.281A14.1,14.1,0,0,0,8.985,36.423a.891.891,0,0,0,.646-1.66,12.322,12.322,0,0,1-7.85-11.482c0-2.345,1.6-6.167,4.624-11.052A118.481,118.481,0,0,1,13.567,2.09a.633.633,0,0,1,1.065,0c2.049,2.611,7.019,9.179,9.8,14.855-1.937,2.644-4.17,5.844-6.211,9.14-4.351,7.027-6.558,12.42-6.558,16.028a18.728,18.728,0,0,0,37.455,0,15.551,15.551,0,0,0-.931-4.813,14.1,14.1,0,0,0,12.6-14.019ZM30.4,59.06A16.966,16.966,0,0,1,13.449,42.113c0-3.225,2.175-8.443,6.291-15.09A160.584,160.584,0,0,1,29.431,13.3a1.239,1.239,0,0,1,1.93,0,160.555,160.555,0,0,1,9.691,13.72c4.115,6.647,6.291,11.865,6.291,15.09A16.966,16.966,0,0,1,30.4,59.06Z" transform="translate(54.209 -67.906)" fill="#006400"/>
    <g id="Group_1701" data-name="Group 1701" transform="translate(89.457 -25.561)">
      <g id="Group_1636" data-name="Group 1636">
        <path id="Path_1575" data-name="Path 1575" d="M174.323,181.244a1.747,1.747,0,0,0-1.84,1.636,8.775,8.775,0,0,1-1.3,4.158,8.285,8.285,0,0,1-3.135,3,1.8,1.8,0,0,0,1.772,3.135,11.812,11.812,0,0,0,4.362-4.226,11.6,11.6,0,0,0,1.772-5.862A1.747,1.747,0,0,0,174.323,181.244Z" transform="translate(-167.152 -181.24)" fill="#006400"/>
      </g>
    </g>
  </g>
</svg>
