<svg xmlns="http://www.w3.org/2000/svg" width="27.061" height="30.927" viewBox="0 0 27.061 30.927">
  <path id="bill" d="M41.92,10.567A6.765,6.765,0,1,0,48.685,3.8,6.773,6.773,0,0,0,41.92,10.567Zm12.5,0a5.734,5.734,0,1,1-5.734-5.734A5.741,5.741,0,0,1,54.419,10.567ZM48.685,7.087A.515.515,0,0,1,49.2,7.6V7.82a1.549,1.549,0,0,1,1.031,1.458.515.515,0,0,1-1.031,0,.515.515,0,1,0-1.031,0v.209a.513.513,0,0,0,.362.492l.615.192a1.54,1.54,0,0,1,1.085,1.476v.209a1.549,1.549,0,0,1-1.224,1.512v.163a.515.515,0,1,1-1.031,0v-.3a1.548,1.548,0,0,1-.838-1.374.515.515,0,1,1,1.031,0,.515.515,0,1,0,1.031,0v-.209a.513.513,0,0,0-.362-.492l-.615-.192a1.54,1.54,0,0,1-1.085-1.476V9.278A1.549,1.549,0,0,1,48.17,7.82V7.6A.515.515,0,0,1,48.685,7.087Zm8.376,13.659v6.572a3.612,3.612,0,0,1-3.608,3.608H33.608A3.612,3.612,0,0,1,30,27.319V2.062A2.064,2.064,0,0,1,32.062,0H48.814a2.064,2.064,0,0,1,2.062,2.062.515.515,0,1,1-1.031,0,1.032,1.032,0,0,0-1.031-1.031H32.062a1.032,1.032,0,0,0-1.031,1.031V27.319A2.58,2.58,0,0,0,33.608,29.9H50.931a3.6,3.6,0,0,1-1.086-2.577V19.265a.515.515,0,1,1,1.031,0v8.054a2.577,2.577,0,1,0,5.155,0V20.747A1.032,1.032,0,0,0,55,19.716H52.809a.515.515,0,1,1,0-1.031H55A2.064,2.064,0,0,1,57.061,20.747ZM34.51,13.853a.515.515,0,0,1,.515-.515h4.381a.515.515,0,1,1,0,1.031H35.026A.515.515,0,0,1,34.51,13.853Zm0-5.8a.515.515,0,0,1,.515-.515h4.381a.515.515,0,1,1,0,1.031H35.026A.515.515,0,0,1,34.51,8.054Zm11.855,11.6a.515.515,0,0,1-.515.515H35.026a.515.515,0,1,1,0-1.031H45.85A.515.515,0,0,1,46.366,19.652Zm0,5.412a.515.515,0,0,1-.515.515H35.026a.515.515,0,1,1,0-1.031H45.85A.515.515,0,0,1,46.366,25.064Z" transform="translate(-30)" fill="#006400"/>
</svg>
