<svg xmlns="http://www.w3.org/2000/svg" width="34.213" height="34.213" viewBox="0 0 34.213 34.213">
  <g id="government" transform="translate(-2 -2)">
    <path id="Path_1605" data-name="Path 1605" d="M27.851,24H25.57a.57.57,0,0,0-.57.57v2.281a.57.57,0,0,0,.57.57h2.281a.57.57,0,0,0,.57-.57V24.57A.57.57,0,0,0,27.851,24Zm-.57,2.281H26.14V25.14h1.14Z" transform="translate(-9.885 -9.455)" fill="#006400"/>
    <path id="Path_1606" data-name="Path 1606" d="M35.851,25.14a.57.57,0,1,0,0-1.14H33.57a.57.57,0,0,0-.57.57v2.281a.57.57,0,0,0,.57.57h2.281a.57.57,0,0,0,0-1.14H34.14V25.14Z" transform="translate(-13.323 -9.455)" fill="#006400"/>
    <path id="Path_1607" data-name="Path 1607" d="M19.851,40H17.57a.57.57,0,0,0-.57.57v9.123a.57.57,0,0,0,1.14,0V41.14h1.14v8.553a.57.57,0,1,0,1.14,0V40.57A.57.57,0,0,0,19.851,40Z" transform="translate(-6.447 -16.332)" fill="#006400"/>
    <path id="Path_1608" data-name="Path 1608" d="M27.851,40H25.57a.57.57,0,0,0-.57.57v9.123a.57.57,0,0,0,1.14,0V41.14h1.14v8.553a.57.57,0,1,0,1.14,0V40.57A.57.57,0,0,0,27.851,40Z" transform="translate(-9.885 -16.332)" fill="#006400"/>
    <path id="Path_1609" data-name="Path 1609" d="M35.851,40H33.57a.57.57,0,0,0-.57.57v9.123a.57.57,0,1,0,1.14,0V41.14h1.14v8.553a.57.57,0,1,0,1.14,0V40.57A.57.57,0,0,0,35.851,40Z" transform="translate(-13.323 -16.332)" fill="#006400"/>
    <path id="Path_1610" data-name="Path 1610" d="M43.851,40H41.57a.57.57,0,0,0-.57.57v9.123a.57.57,0,1,0,1.14,0V41.14h1.14v8.553a.57.57,0,0,0,1.14,0V40.57A.57.57,0,0,0,43.851,40Z" transform="translate(-16.762 -16.332)" fill="#006400"/>
    <path id="Path_1611" data-name="Path 1611" d="M54.57,50a.57.57,0,0,0-.57.57v3.421a.57.57,0,1,0,1.14,0V50.57A.57.57,0,0,0,54.57,50Z" transform="translate(-22.349 -20.63)" fill="#006400"/>
    <path id="Path_1612" data-name="Path 1612" d="M8.57,50a.57.57,0,0,0-.57.57v3.421a.57.57,0,1,0,1.14,0V50.57A.57.57,0,0,0,8.57,50Z" transform="translate(-2.579 -20.63)" fill="#006400"/>
    <path id="Path_1613" data-name="Path 1613" d="M35.642,24.808h-5.7V21.957a.57.57,0,0,0-.57-.57H27.089V19.677a.57.57,0,0,0-.57-.57h-1.14V13.4h.57a.57.57,0,0,0,0-1.14H15.115v-.57a3.991,3.991,0,0,1,7.852-1,.571.571,0,1,0,1.106-.285,5.132,5.132,0,0,0-3.256-3.552V4.851a.57.57,0,0,0-.57-.57h-.57V2.57a.57.57,0,0,0-1.14,0V4.281h-.57a.57.57,0,0,0-.57.57V6.864a5.132,5.132,0,0,0-3.421,4.83v.57H12.264a.57.57,0,1,0,0,1.14h.57v5.7h-1.14a.57.57,0,0,0-.57.57v1.711H8.843a.57.57,0,0,0-.57.57v2.851H2.57a.57.57,0,0,0-.57.57v2.281a.57.57,0,0,0,.57.57h.57v7.413a.57.57,0,1,0,1.14,0V28.23H8.272v7.413a.57.57,0,1,0,1.14,0V22.528H28.8V35.642a.57.57,0,1,0,1.14,0V28.23h3.991v7.413a.57.57,0,1,0,1.14,0V28.23h.57a.57.57,0,0,0,.57-.57V25.379A.57.57,0,0,0,35.642,24.808ZM18.536,5.421h1.14V6.6c-.188,0-.376-.034-.57-.034a4.71,4.71,0,0,0-.57.034ZM3.14,27.089v-1.14H8.272v1.14ZM13.974,13.4H24.238v5.7H13.974Zm-1.711,7.983v-1.14H25.949v1.14Zm22.808,5.7H29.94v-1.14h5.132Z" fill="#006400"/>
  </g>
</svg>
