<svg xmlns="http://www.w3.org/2000/svg" width="39.885" height="42.265" viewBox="0 0 39.885 42.265">
  <g id="Group_1732" data-name="Group 1732" transform="translate(-34.641 -265.867)">
    <g id="experience" transform="translate(34.641 265.868)">
      <path id="Path_1237" data-name="Path 1237" d="M81.383,377.583h19.281a.619.619,0,1,0,0-1.238H81.383a.619.619,0,1,0,0,1.238Z" transform="translate(-75.287 -345.278)" fill="#006400"/>
      <path id="Path_1238" data-name="Path 1238" d="M81.383,418.022h19.281a.619.619,0,1,0,0-1.238H81.383a.619.619,0,1,0,0,1.238Z" transform="translate(-75.287 -382.379)" fill="#006400"/>
      <path id="Path_1239" data-name="Path 1239" d="M81.383,458.463h19.281a.619.619,0,0,0,0-1.238H81.383a.619.619,0,0,0,0,1.238Z" transform="translate(-75.287 -419.482)" fill="#006400"/>
      <path id="Path_1245" data-name="Path 1245" d="M53.662,377.559a.621.621,0,1,0-.621-.621A.621.621,0,0,0,53.662,377.559Z" transform="translate(-49.853 -345.252)" fill="#006400"/>
      <path id="Path_1246" data-name="Path 1246" d="M53.662,418a.621.621,0,1,0-.621-.621A.621.621,0,0,0,53.662,418Z" transform="translate(-49.853 -382.354)" fill="#006400"/>
      <path id="Path_1247" data-name="Path 1247" d="M53.662,458.44a.621.621,0,1,0-.621-.621A.622.622,0,0,0,53.662,458.44Z" transform="translate(-49.853 -419.456)" fill="#006400"/>
      <path id="Path_1248" data-name="Path 1248" d="M53.314,9.751a4.281,4.281,0,0,1-.6-.89,4.513,4.513,0,0,1-.223-1.105,3.453,3.453,0,0,0-.768-2.13,3.454,3.454,0,0,0-2.13-.768,4.514,4.514,0,0,1-1.106-.223,4.276,4.276,0,0,1-.89-.6,4.664,4.664,0,0,0-1.479-.893V2.955A2.958,2.958,0,0,0,43.163,0H17.371a2.958,2.958,0,0,0-2.955,2.955v2.39a.619.619,0,0,0,1.238,0V2.955a1.719,1.719,0,0,1,1.717-1.717H43.163A1.719,1.719,0,0,1,44.88,2.955v.187a4.665,4.665,0,0,0-1.479.893,4.282,4.282,0,0,1-.89.6,4.521,4.521,0,0,1-1.106.223,3.453,3.453,0,0,0-2.13.768,3.453,3.453,0,0,0-.768,2.13,4.513,4.513,0,0,1-.223,1.105,4.277,4.277,0,0,1-.6.89,3.474,3.474,0,0,0-.987,2.1,3.474,3.474,0,0,0,.987,2.1,4.28,4.28,0,0,1,.6.89,4.512,4.512,0,0,1,.223,1.105,3.453,3.453,0,0,0,.768,2.13,3.453,3.453,0,0,0,2.13.768c.217.027.428.053.622.089v9.358a.951.951,0,0,0,1.537.748l1.316-1.03v11.3a1.719,1.719,0,0,1-1.717,1.717H17.371a1.719,1.719,0,0,1-1.717-1.717V8.071a.619.619,0,0,0-1.238,0V39.31a2.958,2.958,0,0,0,2.955,2.955H43.163a2.958,2.958,0,0,0,2.955-2.955v-11.3l1.316,1.03a.951.951,0,0,0,1.538-.748V21.379a.619.619,0,1,0-1.238,0V27.7L46.088,26.41a.952.952,0,0,0-1.175,0L43.265,27.7V19.556l.136.107a3.474,3.474,0,0,0,2.1.987,3.475,3.475,0,0,0,2.1-.987,4.283,4.283,0,0,1,.89-.6,4.521,4.521,0,0,1,1.106-.223,3.454,3.454,0,0,0,2.13-.768,3.454,3.454,0,0,0,.768-2.13,4.517,4.517,0,0,1,.223-1.105,4.277,4.277,0,0,1,.6-.89,3.474,3.474,0,0,0,.987-2.1,3.474,3.474,0,0,0-.987-2.1Zm-.972,3.429a5.187,5.187,0,0,0-.772,1.183,5.445,5.445,0,0,0-.308,1.428,2.561,2.561,0,0,1-.415,1.406,2.562,2.562,0,0,1-1.406.415,5.447,5.447,0,0,0-1.428.308,5.187,5.187,0,0,0-1.184.772,2.555,2.555,0,0,1-1.331.72,2.554,2.554,0,0,1-1.331-.72,5.189,5.189,0,0,0-1.183-.772c-.03-.012-.134-.052-.156-.059a6.159,6.159,0,0,0-1.272-.249,2.562,2.562,0,0,1-1.406-.415,2.561,2.561,0,0,1-.415-1.406,5.446,5.446,0,0,0-.308-1.428,5.189,5.189,0,0,0-.772-1.183,2.554,2.554,0,0,1-.72-1.33,2.553,2.553,0,0,1,.72-1.33,5.186,5.186,0,0,0,.772-1.183,5.441,5.441,0,0,0,.308-1.428A2.561,2.561,0,0,1,40.151,6.5a2.562,2.562,0,0,1,1.406-.415,5.447,5.447,0,0,0,1.428-.308,5.187,5.187,0,0,0,1.183-.772,2.562,2.562,0,0,1,1.328-.72h0a2.561,2.561,0,0,1,1.328.72,5.189,5.189,0,0,0,1.184.772,5.443,5.443,0,0,0,1.428.308,2.562,2.562,0,0,1,1.406.415,2.561,2.561,0,0,1,.415,1.406,5.446,5.446,0,0,0,.308,1.428,5.189,5.189,0,0,0,.772,1.183,2.554,2.554,0,0,1,.72,1.33A2.553,2.553,0,0,1,52.343,13.179Z" transform="translate(-14.416 0)" fill="#006400"/>
      <path id="Path_1249" data-name="Path 1249" d="M344.429,89l-2.107-.6L341.1,86.588a.782.782,0,0,0-1.3,0l-1.218,1.819-2.107.6a.782.782,0,0,0-.4,1.236l1.354,1.721-.084,2.187a.781.781,0,0,0,1.051.764l2.055-.756,2.055.756a.782.782,0,0,0,1.051-.764l-.084-2.188,1.354-1.721a.782.782,0,0,0-.4-1.236Zm-2.03,2.323a.783.783,0,0,0-.167.513l.064,1.674-1.573-.579a.783.783,0,0,0-.54,0l-1.573.579.064-1.675a.784.784,0,0,0-.167-.513l-1.036-1.317,1.613-.456a.784.784,0,0,0,.437-.317l.932-1.393.932,1.392a.784.784,0,0,0,.437.318l1.613.456Z" transform="translate(-309.371 -79.122)" fill="#006400"/>
    </g>
    <g id="drop_1_" data-name="drop (1)" transform="translate(42.631 272.207)">
      <g id="Group_1456" data-name="Group 1456" transform="translate(0 0)">
        <g id="Group_1455" data-name="Group 1455" transform="translate(0 0)">
          <path id="Path_1357" data-name="Path 1357" d="M87.418,6.66c-.146-.278-.272-.519-.335-.658a32.637,32.637,0,0,0-1.965-3.119C83.315.293,82.762.044,82.312,0c-.593-.052-1.3.339-2.835,2.417a29.2,29.2,0,0,0-2.1,3.27l-.149.289c-1.209,2.336-2.458,4.751-2.458,7.672a7.484,7.484,0,0,0,12.79,5.273,7.385,7.385,0,0,0,2.169-5.277C89.713,11.029,88.22,8.187,87.418,6.66Zm-.954,11.178a5.944,5.944,0,0,1-10.159-4.187c0-2.546,1.11-4.692,2.286-6.964l.15-.29a26.885,26.885,0,0,1,1.8-2.821,11.329,11.329,0,0,1,1.64-1.94,16.131,16.131,0,0,1,1.826,2.348,31,31,0,0,1,1.672,2.65c.082.182.212.429.376.742.688,1.31,2.12,4.036,2.13,6.278A5.854,5.854,0,0,1,86.464,17.838Z" transform="translate(-74.765 0)" fill="#006400"/>
        </g>
      </g>
      <g id="Group_1458" data-name="Group 1458" transform="translate(3.052 13.073)">
        <g id="Group_1457" data-name="Group 1457">
          <path id="Path_1358" data-name="Path 1358" d="M152.8,320.088a2.561,2.561,0,0,1-2.558-2.558.77.77,0,0,0-1.54,0,4.1,4.1,0,0,0,4.1,4.1.77.77,0,1,0,0-1.54Z" transform="translate(-148.704 -316.76)" fill="#006400"/>
        </g>
      </g>
      <g id="Group_1460" data-name="Group 1460" transform="translate(8.385 16.228)">
        <g id="Group_1459" data-name="Group 1459" transform="translate(0)">
          <circle id="Ellipse_389" data-name="Ellipse 389" cx="0.77" cy="0.77" r="0.77" fill="#006400"/>
        </g>
      </g>
    </g>
  </g>
</svg>
