<svg xmlns="http://www.w3.org/2000/svg" width="39.885" height="42.265" viewBox="0 0 39.885 42.265">
  <g id="Group_1731" data-name="Group 1731" transform="translate(-34.642 -130.867)">
    <g id="drill" transform="translate(44.081 137.207)">
      <g id="Group_1446" data-name="Group 1446" transform="translate(0 0)">
        <path id="Path_1346" data-name="Path 1346" d="M115.374,0H103.995a.61.61,0,0,0-.61.61V2.032a1.831,1.831,0,0,0,1.829,1.829h.61V6.1a1.832,1.832,0,0,0,1.219,1.724V18.694a.609.609,0,0,0,.2.453l2.032,1.829a.61.61,0,0,0,.816,0l2.032-1.829a.61.61,0,0,0,.2-.453V7.82A1.832,1.832,0,0,0,113.545,6.1V3.861h.61a1.831,1.831,0,0,0,1.829-1.829V.61A.61.61,0,0,0,115.374,0Zm-4.267,18.423-1.422,1.28-1.422-1.28v-.941l2.845-1.138v2.079Zm0-3.392-2.845,1.138V14.332l2.845-1.138Zm0-3.15-2.845,1.138V11.385l2.845-1.138Zm0-2.946-2.845,1.138V7.925h2.845ZM112.326,6.1a.61.61,0,0,1-.61.61h-4.064a.61.61,0,0,1-.61-.61v-.61h5.283Zm2.438-4.064a.61.61,0,0,1-.61.61h-1.219a.61.61,0,0,0-.61.61V4.267h-5.283V3.251a.61.61,0,0,0-.61-.61h-1.219a.61.61,0,0,1-.61-.61V1.219h10.16v.813Z" transform="translate(-103.385)" fill="#006400"/>
      </g>
    </g>
    <g id="experience" transform="translate(34.642 130.868)">
      <path id="Path_1237" data-name="Path 1237" d="M81.383,377.583h19.281a.619.619,0,1,0,0-1.238H81.383a.619.619,0,1,0,0,1.238Z" transform="translate(-75.287 -345.278)" fill="#006400"/>
      <path id="Path_1238" data-name="Path 1238" d="M81.383,418.022h19.281a.619.619,0,1,0,0-1.238H81.383a.619.619,0,1,0,0,1.238Z" transform="translate(-75.287 -382.379)" fill="#006400"/>
      <path id="Path_1239" data-name="Path 1239" d="M81.383,458.463h19.281a.619.619,0,1,0,0-1.238H81.383a.619.619,0,1,0,0,1.238Z" transform="translate(-75.287 -419.482)" fill="#006400"/>
      <path id="Path_1245" data-name="Path 1245" d="M53.662,377.559a.621.621,0,1,0-.621-.621A.621.621,0,0,0,53.662,377.559Z" transform="translate(-49.853 -345.252)" fill="#006400"/>
      <path id="Path_1246" data-name="Path 1246" d="M53.662,418a.621.621,0,1,0-.621-.621A.621.621,0,0,0,53.662,418Z" transform="translate(-49.853 -382.354)" fill="#006400"/>
      <path id="Path_1247" data-name="Path 1247" d="M53.662,458.44a.621.621,0,1,0-.621-.621A.622.622,0,0,0,53.662,458.44Z" transform="translate(-49.853 -419.456)" fill="#006400"/>
      <path id="Path_1248" data-name="Path 1248" d="M53.314,9.751a4.281,4.281,0,0,1-.6-.89,4.512,4.512,0,0,1-.223-1.105,3.453,3.453,0,0,0-.768-2.13,3.454,3.454,0,0,0-2.13-.768,4.514,4.514,0,0,1-1.106-.223,4.276,4.276,0,0,1-.89-.6,4.664,4.664,0,0,0-1.479-.893V2.955A2.958,2.958,0,0,0,43.163,0H17.371a2.958,2.958,0,0,0-2.955,2.955v2.39a.619.619,0,0,0,1.238,0V2.955a1.719,1.719,0,0,1,1.717-1.717H43.163A1.719,1.719,0,0,1,44.88,2.955v.187a4.665,4.665,0,0,0-1.479.893,4.282,4.282,0,0,1-.89.6,4.521,4.521,0,0,1-1.106.223,3.453,3.453,0,0,0-2.13.768,3.453,3.453,0,0,0-.768,2.13,4.513,4.513,0,0,1-.223,1.105,4.277,4.277,0,0,1-.6.89,3.474,3.474,0,0,0-.987,2.1,3.474,3.474,0,0,0,.987,2.1,4.28,4.28,0,0,1,.6.89,4.512,4.512,0,0,1,.223,1.105,3.453,3.453,0,0,0,.768,2.13,3.453,3.453,0,0,0,2.13.768c.217.027.428.053.622.089v9.358a.951.951,0,0,0,1.537.748l1.316-1.03v11.3a1.719,1.719,0,0,1-1.717,1.717H17.371a1.719,1.719,0,0,1-1.717-1.717V8.071a.619.619,0,0,0-1.238,0V39.31a2.958,2.958,0,0,0,2.955,2.955H43.163a2.958,2.958,0,0,0,2.955-2.955v-11.3l1.316,1.03a.951.951,0,0,0,1.538-.748V21.379a.619.619,0,1,0-1.238,0V27.7L46.088,26.41a.952.952,0,0,0-1.175,0L43.265,27.7V19.556l.136.107a3.474,3.474,0,0,0,2.1.987,3.475,3.475,0,0,0,2.1-.987,4.283,4.283,0,0,1,.89-.6,4.521,4.521,0,0,1,1.106-.223,3.454,3.454,0,0,0,2.13-.768,3.454,3.454,0,0,0,.768-2.13,4.517,4.517,0,0,1,.223-1.105,4.277,4.277,0,0,1,.6-.89,3.474,3.474,0,0,0,.987-2.1,3.474,3.474,0,0,0-.987-2.1Zm-.972,3.429a5.187,5.187,0,0,0-.772,1.183,5.445,5.445,0,0,0-.308,1.428,2.561,2.561,0,0,1-.415,1.406,2.562,2.562,0,0,1-1.406.415,5.447,5.447,0,0,0-1.428.308,5.187,5.187,0,0,0-1.184.772,2.555,2.555,0,0,1-1.331.72,2.554,2.554,0,0,1-1.331-.72,5.189,5.189,0,0,0-1.183-.772c-.03-.012-.134-.052-.156-.059a6.159,6.159,0,0,0-1.272-.249,2.562,2.562,0,0,1-1.406-.415,2.561,2.561,0,0,1-.415-1.406,5.446,5.446,0,0,0-.308-1.428,5.189,5.189,0,0,0-.772-1.183,2.554,2.554,0,0,1-.72-1.33,2.553,2.553,0,0,1,.72-1.33,5.186,5.186,0,0,0,.772-1.183,5.442,5.442,0,0,0,.308-1.428A2.561,2.561,0,0,1,40.151,6.5a2.562,2.562,0,0,1,1.406-.415,5.447,5.447,0,0,0,1.428-.308,5.187,5.187,0,0,0,1.183-.772,2.562,2.562,0,0,1,1.328-.72h0a2.561,2.561,0,0,1,1.328.72,5.189,5.189,0,0,0,1.183.772,5.443,5.443,0,0,0,1.428.308,2.562,2.562,0,0,1,1.406.415,2.561,2.561,0,0,1,.415,1.406,5.446,5.446,0,0,0,.308,1.428,5.189,5.189,0,0,0,.772,1.183,2.554,2.554,0,0,1,.72,1.33A2.553,2.553,0,0,1,52.342,13.179Z" transform="translate(-14.416 0)" fill="#006400"/>
      <path id="Path_1249" data-name="Path 1249" d="M344.429,89l-2.107-.6L341.1,86.588a.782.782,0,0,0-1.3,0l-1.218,1.819-2.107.6a.782.782,0,0,0-.4,1.236l1.354,1.721-.084,2.187a.781.781,0,0,0,1.051.764l2.055-.756,2.055.756a.782.782,0,0,0,1.051-.764l-.084-2.188,1.354-1.721a.782.782,0,0,0-.4-1.236Zm-2.03,2.323a.783.783,0,0,0-.167.513l.064,1.674-1.573-.579a.783.783,0,0,0-.54,0l-1.573.579.064-1.675a.784.784,0,0,0-.167-.513l-1.036-1.317,1.613-.456a.783.783,0,0,0,.437-.317l.932-1.393.932,1.392a.784.784,0,0,0,.437.318l1.613.456Z" transform="translate(-309.372 -79.122)" fill="#006400"/>
    </g>
  </g>
</svg>
