<svg xmlns="http://www.w3.org/2000/svg" width="48.102" height="48.102" viewBox="0 0 48.102 48.102">
  <g id="online-banking" transform="translate(0 0)">
    <circle id="Ellipse_387" data-name="Ellipse 387" cx="24.051" cy="24.051" r="24.051" transform="translate(0 0)" fill="#f0582f"/>
    <path id="Path_1284" data-name="Path 1284" d="M94.03,111.512a1.3,1.3,0,0,0-1.313-1.313H57.938a1.3,1.3,0,0,0-1.313,1.313v21.841H94.03V111.512Z" transform="translate(-51.277 -99.791)" fill="#646b79"/>
    <path id="Path_1285" data-name="Path 1285" d="M56.625,355.348v3.01a1.3,1.3,0,0,0,1.313,1.313H92.717a1.3,1.3,0,0,0,1.313-1.313v-3.01Z" transform="translate(-51.277 -321.786)" fill="#f1f3f7"/>
    <rect id="Rectangle_2191" data-name="Rectangle 2191" width="33.882" height="19.951" transform="translate(7.11 12.009)" fill="#6eb1e1"/>
    <rect id="Rectangle_2192" data-name="Rectangle 2192" width="10.312" height="3.651" transform="translate(18.895 37.885)" fill="#dededf"/>
    <path id="Path_1286" data-name="Path 1286" d="M184.407,439.777H173.2a2.3,2.3,0,0,0-2.306,2.306h15.852A2.344,2.344,0,0,0,184.407,439.777Z" transform="translate(-154.752 -398.241)" fill="#f1f3f7"/>
    <circle id="Ellipse_388" data-name="Ellipse 388" cx="0.993" cy="0.993" r="0.993" transform="translate(23.058 34.747)" fill="#dededf"/>
    <g id="Group_1426" data-name="Group 1426" transform="translate(11.017 15.992)">
      <path id="Path_1287" data-name="Path 1287" d="M204.08,169.343a.424.424,0,0,0-.416.416v2.722l-1.793-2.946a.412.412,0,0,0-.48-.192.442.442,0,0,0-.32.416v4.291a.416.416,0,1,0,.833,0v-2.722l1.761,2.946a.466.466,0,0,0,.48.192.442.442,0,0,0,.32-.416V169.76A.378.378,0,0,0,204.08,169.343Z" transform="translate(-193.096 -169.323)" fill="#fcfcfd"/>
      <path id="Path_1288" data-name="Path 1288" d="M302.75,169.343a.424.424,0,0,0-.416.416v2.722l-1.793-2.946a.412.412,0,0,0-.48-.192.442.442,0,0,0-.32.416v4.291a.416.416,0,1,0,.833,0v-2.722l1.761,2.946a.466.466,0,0,0,.48.192.442.442,0,0,0,.32-.416V169.76A.378.378,0,0,0,302.75,169.343Z" transform="translate(-282.447 -169.323)" fill="#fcfcfd"/>
      <path id="Path_1289" data-name="Path 1289" d="M344.575,175.274h1.7a.416.416,0,0,0,0-.833h-1.249V173.16h1.249a.416.416,0,0,0,0-.833h-1.249v-1.281h1.249a.416.416,0,0,0,0-.833h-1.7a.424.424,0,0,0-.416.416v4.291A.419.419,0,0,0,344.575,175.274Z" transform="translate(-322.67 -170.13)" fill="#fcfcfd"/>
      <path id="Path_1290" data-name="Path 1290" d="M246.771,174.967h1.7a.416.416,0,0,0,0-.833H247.22v-3.843a.416.416,0,1,0-.833,0v4.291C246.323,174.775,246.515,174.967,246.771,174.967Z" transform="translate(-234.121 -169.823)" fill="#fcfcfd"/>
      <path id="Path_1291" data-name="Path 1291" d="M282.185,169.536a.424.424,0,0,0-.416.416v4.291a.416.416,0,1,0,.833,0v-4.291A.424.424,0,0,0,282.185,169.536Z" transform="translate(-266.173 -169.516)" fill="#fcfcfd"/>
      <path id="Path_1292" data-name="Path 1292" d="M140.9,174.66a2.562,2.562,0,1,0-2.562-2.562A2.57,2.57,0,0,0,140.9,174.66Zm0-4.291a1.7,1.7,0,1,1-1.7,1.7A1.688,1.688,0,0,1,140.9,170.369Z" transform="translate(-136.292 -169.516)" fill="#fcfcfd"/>
      <path id="Path_1293" data-name="Path 1293" d="M202.014,241.566a.424.424,0,0,0-.416.416V244.7l-1.761-2.946a.412.412,0,0,0-.48-.192.442.442,0,0,0-.32.416v4.291a.416.416,0,1,0,.833,0v-2.722l1.761,2.946a.466.466,0,0,0,.48.192.442.442,0,0,0,.32-.416v-4.259A.4.4,0,0,0,202.014,241.566Z" transform="translate(-191.254 -234.725)" fill="#fcfcfd"/>
      <path id="Path_1294" data-name="Path 1294" d="M300.345,241.566a.424.424,0,0,0-.416.416V244.7l-1.761-2.946a.411.411,0,0,0-.48-.192.442.442,0,0,0-.32.416v4.291a.416.416,0,1,0,.833,0v-2.722l1.761,2.946c.128.256.448.192.48.192a.442.442,0,0,0,.32-.416v-4.259A.4.4,0,0,0,300.345,241.566Z" transform="translate(-280.298 -234.725)" fill="#fcfcfd"/>
      <path id="Path_1295" data-name="Path 1295" d="M280.151,241.759a.424.424,0,0,0-.416.416v4.291a.416.416,0,0,0,.833,0v-4.259A.4.4,0,0,0,280.151,241.759Z" transform="translate(-264.331 -234.918)" fill="#fcfcfd"/>
      <path id="Path_1296" data-name="Path 1296" d="M153.319,242.386a.449.449,0,0,0-.384-.288.377.377,0,0,0-.384.288l-1.633,4.227a.4.4,0,0,0,.256.544.416.416,0,0,0,.544-.256l.384-.993h1.665l.384.993a.425.425,0,0,0,.8-.288Zm-.9,2.658.512-1.313.512,1.313Z" transform="translate(-147.65 -235.225)" fill="#fcfcfd"/>
      <path id="Path_1297" data-name="Path 1297" d="M119.683,243.264a1.5,1.5,0,0,0-1.505-1.505h-1.121a.424.424,0,0,0-.416.416v4.291a.424.424,0,0,0,.416.416h1.121a1.5,1.5,0,0,0,1.505-1.505,1.47,1.47,0,0,1,0-2.114Zm-2.178-.64h.7a.64.64,0,0,1,0,1.281h-.7Zm.673,3.427h-.7v-1.281h.7a.641.641,0,0,1,0,1.281Z" transform="translate(-116.641 -234.918)" fill="#fcfcfd"/>
      <path id="Path_1298" data-name="Path 1298" d="M244.609,242.225a.445.445,0,0,0-.608,0l-1.409,1.409v-1.121a.416.416,0,1,0-.833,0V246.8a.416.416,0,1,0,.833,0v-1.121L244,247.093a.474.474,0,0,0,.608,0,.445.445,0,0,0,0-.608l-1.793-1.825,1.825-1.825A.417.417,0,0,0,244.609,242.225Z" transform="translate(-229.942 -235.224)" fill="#fcfcfd"/>
      <path id="Path_1299" data-name="Path 1299" d="M343.728,244.948a.459.459,0,0,0-.352-.16h-2.114a.416.416,0,1,0,0,.833H342.7a1.708,1.708,0,1,1-1.409-2.69,1.658,1.658,0,0,1,1.473.865.423.423,0,0,0,.737-.416,2.542,2.542,0,0,0-2.21-1.281,2.562,2.562,0,0,0,0,5.124,2.538,2.538,0,0,0,2.466-1.889A.292.292,0,0,0,343.728,244.948Z" transform="translate(-317.756 -235.224)" fill="#fcfcfd"/>
    </g>
  </g>
</svg>
