<svg xmlns="http://www.w3.org/2000/svg" width="54.404" height="39.464" viewBox="0 0 54.404 39.464">
  <g id="pay" transform="translate(0 -55.38)">
    <path id="Path_1629" data-name="Path 1629" d="M47.5,61.511v1.2H11.7a4.44,4.44,0,0,0-4.369,4.44V87.938H4.369A4.369,4.369,0,0,1,0,83.568V59.749A4.369,4.369,0,0,1,4.369,55.38H43.128A4.369,4.369,0,0,1,47.5,59.749Z" transform="translate(0 0)" fill="#00ceb4"/>
    <path id="Path_1630" data-name="Path 1630" d="M98.7,210.547v14.165a4.369,4.369,0,0,1-4.369,4.369H55.569a4.369,4.369,0,0,1-4.369-4.369V210.547Z" transform="translate(-44.294 -134.237)" fill="#00efd1"/>
    <path id="Path_1631" data-name="Path 1631" d="M98.7,163.527v6.342H51.2v-6.342H98.7Z" transform="translate(-44.294 -93.56)" fill="#00acea"/>
    <path id="Path_1632" data-name="Path 1632" d="M98.7,110.948v3.312H51.2v-3.312a4.369,4.369,0,0,1,4.369-4.369H94.328A4.369,4.369,0,0,1,98.7,110.948Z" transform="translate(-44.294 -44.293)" fill="#00efd1"/>
    <path id="Path_1633" data-name="Path 1633" d="M278.527,254.513a3.594,3.594,0,0,1,0,7.118,3.383,3.383,0,0,1-2.748-1.339,3.383,3.383,0,0,1-2.748,1.339,3.594,3.594,0,1,1,2.748-5.779A3.6,3.6,0,0,1,278.527,254.513Z" transform="translate(-233.003 -172.213)" fill="#fedb41"/>
  </g>
</svg>
