<svg xmlns="http://www.w3.org/2000/svg" width="38.89" height="46.667" viewBox="0 0 38.89 46.667">
  <g id="text" transform="translate(-2)">
    <path id="Path_1577" data-name="Path 1577" d="M36.028,46.667H6.861A4.868,4.868,0,0,1,2,41.806V4.861A4.868,4.868,0,0,1,6.861,0H36.028A4.868,4.868,0,0,1,40.89,4.861V41.806A4.868,4.868,0,0,1,36.028,46.667ZM6.861,1.944A2.92,2.92,0,0,0,3.944,4.861V41.806a2.92,2.92,0,0,0,2.917,2.917H36.028a2.92,2.92,0,0,0,2.917-2.917V4.861a2.92,2.92,0,0,0-2.917-2.917Z" transform="translate(0)" fill="#006400"/>
    <path id="Path_1581" data-name="Path 1581" d="M22.75,9.944H14.972a.972.972,0,1,1,0-1.944H22.75a.972.972,0,0,1,0,1.944Z" transform="translate(11.334 7.556)" fill="#006400"/>
    <path id="Path_1582" data-name="Path 1582" d="M22.75,12.944H14.972a.972.972,0,1,1,0-1.944H22.75a.972.972,0,0,1,0,1.944Z" transform="translate(11.334 10.389)" fill="#006400"/>
    <path id="Path_1584" data-name="Path 1584" d="M31.25,18.944H5.972a.972.972,0,0,1,0-1.944H31.25a.972.972,0,1,1,0,1.944Z" transform="translate(2.833 16.056)" fill="#006400"/>
    <path id="Path_1585" data-name="Path 1585" d="M31.25,21.944H5.972a.972.972,0,0,1,0-1.944H31.25a.972.972,0,1,1,0,1.944Z" transform="translate(2.833 18.89)" fill="#006400"/>
    <path id="Path_1598" data-name="Path 1598" d="M22.75,9.944H14.972a.972.972,0,1,1,0-1.944H22.75a.972.972,0,0,1,0,1.944Z" transform="translate(11.334 1.937)" fill="#006400"/>
    <path id="Path_1599" data-name="Path 1599" d="M31.25,18.944H5.972a.972.972,0,0,1,0-1.944H31.25a.972.972,0,1,1,0,1.944Z" transform="translate(2.833 10.438)" fill="#006400"/>
    <g id="water_4_" data-name="water (4)" transform="translate(7.153 7.869)">
      <g id="Group_1639" data-name="Group 1639" transform="translate(0 0)">
        <g id="Group_1638" data-name="Group 1638">
          <path id="Path_1590" data-name="Path 1590" d="M150.609,104.021a3.563,3.563,0,0,0,.273-.447h0a3.553,3.553,0,0,0-.269-3.7l-2.9-4.062-2.9,4.062a3.566,3.566,0,1,0,5.8,4.152Zm-4.979-.613a2.546,2.546,0,0,1-.183-.3h0a2.506,2.506,0,0,1,.192-2.645l2.072-2.9,2.072,2.9a2.546,2.546,0,0,1-4.153,2.946Z" transform="translate(-139.546 -92.753)" fill="#006400"/>
          <path id="Path_1591" data-name="Path 1591" d="M216.242,261.984a1.5,1.5,0,0,0-.115-1.585l-.83.593a.505.505,0,1,1-.82.59.5.5,0,0,1-.04-.066l-.907.467a1.525,1.525,0,0,0,2.712,0Z" transform="translate(-206.721 -252.096)" fill="#006400"/>
          <path id="Path_1592" data-name="Path 1592" d="M341.146,18.984a8.082,8.082,0,0,0-.979-.473l-.381.947a6.981,6.981,0,0,1,.855.413Z" transform="translate(-328.951 -17.922)" fill="#006400"/>
          <path id="Path_1593" data-name="Path 1593" d="M392.068,52.143l-.618.812a7.146,7.146,0,0,1,2.23,8.547l.935.408A8.166,8.166,0,0,0,392.068,52.143Z" transform="translate(-378.967 -50.481)" fill="#006400"/>
          <path id="Path_1594" data-name="Path 1594" d="M1.022,156.9a7.134,7.134,0,0,1,.6-2.857l-.936-.408A8.164,8.164,0,0,0,3.23,163.4l.618-.812A7.1,7.1,0,0,1,1.022,156.9Z" transform="translate(0 -148.733)" fill="#006400"/>
          <path id="Path_1595" data-name="Path 1595" d="M129.642,451.782a8.111,8.111,0,0,0,.979.473l.382-.946a7.192,7.192,0,0,1-.856-.413Z" transform="translate(-125.508 -436.517)" fill="#006400"/>
          <path id="Path_1596" data-name="Path 1596" d="M51.1,3.088H49.688a7.041,7.041,0,0,1,4.986-2.041,7.188,7.188,0,0,1,1.765.22l.251-.989a8.129,8.129,0,0,0-7.628,2.006V1.047h-1.02V4.108H51.1Z" transform="translate(-46.51 -0.026)" fill="#006400"/>
          <path id="Path_1597" data-name="Path 1597" d="M198.429,385.051h1.413a7.052,7.052,0,0,1-4.984,2.041,7.166,7.166,0,0,1-1.764-.22l-.251.989a8.2,8.2,0,0,0,2.015.251,8.061,8.061,0,0,0,5.612-2.253v1.232h1.02v-3.061h-3.061Z" transform="translate(-186.692 -371.786)" fill="#006400"/>
        </g>
      </g>
    </g>
  </g>
</svg>
