<svg xmlns="http://www.w3.org/2000/svg" width="22.86" height="32.158" viewBox="0 0 22.86 32.158">
  <g id="bookmark" transform="translate(-74.012)">
    <g id="Group_1721" data-name="Group 1721" transform="translate(74.012)">
      <g id="Group_1720" data-name="Group 1720" transform="translate(0)">
        <path id="Path_1636" data-name="Path 1636" d="M95.074,0H76.1a2.1,2.1,0,0,0-2.093,2.093V30.064A2.1,2.1,0,0,0,76.1,32.157H95.074a1.8,1.8,0,0,0,1.8-1.8V1.8A1.8,1.8,0,0,0,95.074,0ZM89.2.955H92.07V4.471l-1.133-.914a.477.477,0,0,0-.6,0L89.2,4.471ZM74.967,2.093A1.139,1.139,0,0,1,76.1.955h2.208V27.972H76.1a2.08,2.08,0,0,0-1.138.338Zm20.95,28.266a.843.843,0,0,1-.843.843H76.1a1.139,1.139,0,0,1-1.133-1.04,2.079,2.079,0,0,0,1.133.333h2.556a.478.478,0,0,0,0-.955H76.105a1.129,1.129,0,0,1-.775-.306,1.132,1.132,0,0,1,.774-.307H95.074a1.787,1.787,0,0,0,.842-.21.844.844,0,0,1-.842.823H80.889a.478.478,0,0,0,0,.955H95.074a1.787,1.787,0,0,0,.843-.211v.075Zm0-5.921v2.69a.844.844,0,0,1-.843.843H79.268V.955H88.25V5.47a.478.478,0,0,0,.777.372l1.61-1.3,1.61,1.3a.478.478,0,0,0,.777-.372V.955h2.049a.844.844,0,0,1,.843.843v22.64Z" transform="translate(-74.012)" fill="#006400"/>
      </g>
    </g>
    <g id="Group_1723" data-name="Group 1723" transform="translate(80.701 7.954)">
      <g id="Group_1722" data-name="Group 1722">
        <path id="Path_1637" data-name="Path 1637" d="M191.567,126.636H189.9a.478.478,0,1,0,0,.955h1.663a.881.881,0,0,1,.881.881v3.969a.881.881,0,0,1-.881.881h-9.222a.881.881,0,0,1-.881-.881v-3.969a.881.881,0,0,1,.881-.881h5.331a.478.478,0,1,0,0-.955h-5.331a1.836,1.836,0,0,0-1.836,1.836v3.969a1.836,1.836,0,0,0,1.836,1.836h9.222a1.836,1.836,0,0,0,1.836-1.836v-3.969A1.836,1.836,0,0,0,191.567,126.636Z" transform="translate(-180.509 -126.636)" fill="#006400"/>
      </g>
    </g>
  </g>
</svg>
