<svg xmlns="http://www.w3.org/2000/svg" width="30.945" height="32.791" viewBox="0 0 30.945 32.791">
  <g id="experience" transform="translate(-14.416 0.001)">
    <path id="Path_1235" data-name="Path 1235" d="M145.373,52.367l-.555.2a2.612,2.612,0,0,0-1.667,1.955l-.188.986a1.663,1.663,0,0,0,1.633,1.976H149.4a1.664,1.664,0,0,0,1.638-1.956l-.175-.981a2.607,2.607,0,0,0-1.672-1.986l-.588-.213v-.867a.477.477,0,0,0-.006-.071,2.357,2.357,0,0,0,.675-1.641V48.479a2.286,2.286,0,0,0-4.572,0V49.81a2.28,2.28,0,0,0,.673,1.613.474.474,0,0,0,0,.059Zm4.548,2.35.175.981a.7.7,0,0,1-.692.826H144.6a.7.7,0,0,1-.69-.835l.188-.986a1.647,1.647,0,0,1,1.05-1.232l.363-.132.028.027a2.216,2.216,0,0,0,2.9,0,.47.47,0,0,0,.042-.042l.383.139A1.643,1.643,0,0,1,149.921,54.717Zm-4.257-6.238a1.324,1.324,0,0,1,2.607-.33c-.062.03-.125.059-.19.085a1.6,1.6,0,0,1-1.2.11.48.48,0,0,0-.552.787,1.591,1.591,0,0,0,.916.247,3.2,3.2,0,0,0,1.072-.2v.6a1.391,1.391,0,0,1-.417.986,1.342,1.342,0,0,1-.414.278l-.031.013a1.24,1.24,0,0,1-.49.088,1.331,1.331,0,0,1-1.3-1.325Zm1.28,3.617h.044a2.229,2.229,0,0,0,.657-.1v.768a1.254,1.254,0,0,1-1.312,0V52A2.254,2.254,0,0,0,146.945,52.1Z" transform="translate(-120.286 -43.234)" fill="#006400"/>
    <path id="Path_1236" data-name="Path 1236" d="M81.244,336.865H96.2a.48.48,0,1,0,0-.961H81.244a.48.48,0,0,0,0,.961Z" transform="translate(-62.099 -314.391)" fill="#006400"/>
    <path id="Path_1237" data-name="Path 1237" d="M81.244,377.306H96.2a.48.48,0,1,0,0-.961H81.244a.48.48,0,1,0,0,.961Z" transform="translate(-62.099 -352.241)" fill="#006400"/>
    <path id="Path_1238" data-name="Path 1238" d="M81.244,417.745H96.2a.48.48,0,1,0,0-.961H81.244a.48.48,0,1,0,0,.961Z" transform="translate(-62.099 -390.09)" fill="#006400"/>
    <path id="Path_1239" data-name="Path 1239" d="M81.244,458.186H96.2a.48.48,0,0,0,0-.961H81.244a.48.48,0,0,0,0,.961Z" transform="translate(-62.099 -427.941)" fill="#006400"/>
    <path id="Path_1240" data-name="Path 1240" d="M80.764,255.5a.48.48,0,0,0,.48.48H96.2a.48.48,0,0,0,0-.961H81.244A.48.48,0,0,0,80.764,255.5Z" transform="translate(-62.099 -238.691)" fill="#006400"/>
    <path id="Path_1241" data-name="Path 1241" d="M81.244,296.425H96.2a.48.48,0,1,0,0-.961H81.244a.48.48,0,0,0,0,.961Z" transform="translate(-62.099 -276.541)" fill="#006400"/>
    <path id="Path_1242" data-name="Path 1242" d="M53.523,336.84a.482.482,0,1,0-.482-.482A.482.482,0,0,0,53.523,336.84Z" transform="translate(-36.151 -314.364)" fill="#006400"/>
    <path id="Path_1243" data-name="Path 1243" d="M53.523,255.96a.482.482,0,1,0-.482-.482A.482.482,0,0,0,53.523,255.96Z" transform="translate(-36.151 -238.664)" fill="#006400"/>
    <path id="Path_1244" data-name="Path 1244" d="M53.523,296.4a.482.482,0,1,0-.482-.482A.482.482,0,0,0,53.523,296.4Z" transform="translate(-36.151 -276.514)" fill="#006400"/>
    <path id="Path_1245" data-name="Path 1245" d="M53.523,377.28a.482.482,0,1,0-.482-.482A.482.482,0,0,0,53.523,377.28Z" transform="translate(-36.151 -352.214)" fill="#006400"/>
    <path id="Path_1246" data-name="Path 1246" d="M53.523,417.721a.482.482,0,1,0-.482-.482A.482.482,0,0,0,53.523,417.721Z" transform="translate(-36.151 -390.065)" fill="#006400"/>
    <path id="Path_1247" data-name="Path 1247" d="M53.523,458.161a.482.482,0,1,0-.482-.482A.482.482,0,0,0,53.523,458.161Z" transform="translate(-36.151 -427.915)" fill="#006400"/>
    <path id="Path_1248" data-name="Path 1248" d="M44.6,7.565a3.321,3.321,0,0,1-.466-.691,3.5,3.5,0,0,1-.173-.858,2.679,2.679,0,0,0-.6-1.652,2.68,2.68,0,0,0-1.652-.6,3.5,3.5,0,0,1-.858-.173,3.318,3.318,0,0,1-.691-.465,3.618,3.618,0,0,0-1.148-.693V2.292A2.3,2.3,0,0,0,36.72,0H16.709a2.3,2.3,0,0,0-2.293,2.293V4.147a.48.48,0,0,0,.961,0V2.293A1.333,1.333,0,0,1,16.709.961H36.72a1.333,1.333,0,0,1,1.332,1.332v.145A3.62,3.62,0,0,0,36.9,3.13a3.322,3.322,0,0,1-.691.465,3.508,3.508,0,0,1-.858.173,2.679,2.679,0,0,0-1.652.6,2.679,2.679,0,0,0-.6,1.652,3.5,3.5,0,0,1-.173.858,3.318,3.318,0,0,1-.466.691A2.7,2.7,0,0,0,31.7,9.193a2.7,2.7,0,0,0,.766,1.628,3.321,3.321,0,0,1,.466.691,3.5,3.5,0,0,1,.173.858,2.679,2.679,0,0,0,.6,1.652,2.679,2.679,0,0,0,1.652.6c.168.021.332.041.482.069v7.261a.738.738,0,0,0,1.192.581l1.021-.8V30.5a1.333,1.333,0,0,1-1.332,1.332H16.709A1.333,1.333,0,0,1,15.377,30.5V6.262a.48.48,0,0,0-.961,0V30.5a2.3,2.3,0,0,0,2.293,2.293H36.72A2.3,2.3,0,0,0,39.012,30.5V21.729l1.021.8a.738.738,0,0,0,1.193-.581V16.587a.48.48,0,1,0-.961,0v4.9l-1.277-1a.738.738,0,0,0-.912,0l-1.278,1V15.173l.105.083a2.7,2.7,0,0,0,1.628.766,2.7,2.7,0,0,0,1.628-.765,3.323,3.323,0,0,1,.691-.466,3.508,3.508,0,0,1,.858-.173,2.68,2.68,0,0,0,1.652-.6,2.68,2.68,0,0,0,.6-1.652,3.5,3.5,0,0,1,.173-.858,3.318,3.318,0,0,1,.466-.691,2.7,2.7,0,0,0,.766-1.628A2.7,2.7,0,0,0,44.6,7.565Zm-.754,2.66a4.024,4.024,0,0,0-.6.918A4.224,4.224,0,0,0,43,12.251a1.987,1.987,0,0,1-.322,1.091,1.988,1.988,0,0,1-1.091.322,4.226,4.226,0,0,0-1.108.239,4.024,4.024,0,0,0-.918.6,1.982,1.982,0,0,1-1.032.559A1.982,1.982,0,0,1,37.5,14.5a4.026,4.026,0,0,0-.918-.6c-.023-.01-.1-.04-.121-.046a4.778,4.778,0,0,0-.987-.193,1.988,1.988,0,0,1-1.091-.322,1.987,1.987,0,0,1-.322-1.091,4.225,4.225,0,0,0-.239-1.108,4.026,4.026,0,0,0-.6-.918,1.982,1.982,0,0,1-.559-1.032,1.981,1.981,0,0,1,.559-1.032,4.024,4.024,0,0,0,.6-.918,4.222,4.222,0,0,0,.239-1.108,1.987,1.987,0,0,1,.322-1.091,1.988,1.988,0,0,1,1.091-.322,4.226,4.226,0,0,0,1.108-.239,4.024,4.024,0,0,0,.918-.6,1.987,1.987,0,0,1,1.031-.559h0a1.987,1.987,0,0,1,1.031.559,4.026,4.026,0,0,0,.918.6,4.223,4.223,0,0,0,1.108.239,1.987,1.987,0,0,1,1.091.322A1.987,1.987,0,0,1,43,6.135a4.225,4.225,0,0,0,.239,1.108,4.026,4.026,0,0,0,.6.918A1.982,1.982,0,0,1,44.4,9.193,1.981,1.981,0,0,1,43.842,10.225Z" fill="#006400"/>
    <path id="Path_1249" data-name="Path 1249" d="M342.52,88.384l-1.635-.462-.945-1.412a.607.607,0,0,0-1.008,0l-.945,1.412-1.635.463a.607.607,0,0,0-.312.959l1.051,1.335-.065,1.7a.606.606,0,0,0,.816.593l1.594-.587,1.594.586a.607.607,0,0,0,.816-.593l-.065-1.7,1.051-1.335a.607.607,0,0,0-.312-.959Zm-1.575,1.8a.608.608,0,0,0-.129.4l.05,1.3-1.22-.449a.608.608,0,0,0-.419,0l-1.22.449.05-1.3a.608.608,0,0,0-.13-.4l-.8-1.022,1.251-.354a.608.608,0,0,0,.339-.246l.723-1.08.723,1.08a.608.608,0,0,0,.339.246l1.251.354Z" transform="translate(-300.904 -80.718)" fill="#006400"/>
  </g>
</svg>
