<svg xmlns="http://www.w3.org/2000/svg" width="24" height="32" viewBox="0 0 24 32">
  <g id="lock" transform="translate(-64 0)">
    <g id="Group_1444" data-name="Group 1444" transform="translate(64)">
      <g id="Group_1443" data-name="Group 1443">
        <path id="Path_1327" data-name="Path 1327" d="M214.424,282.144,214,285.926a.667.667,0,0,0,.663.74h2.667a.667.667,0,0,0,.663-.74l-.421-3.782A2.637,2.637,0,0,0,218.666,280a2.667,2.667,0,0,0-5.333,0A2.638,2.638,0,0,0,214.424,282.144ZM216,278.666a1.329,1.329,0,0,1,.576,2.529.667.667,0,0,0-.372.674l.385,3.464h-1.177l.385-3.464a.667.667,0,0,0-.372-.674,1.329,1.329,0,0,1,.575-2.529Z" transform="translate(-204 -260)" fill="#006400"/>
        <path id="Path_1328" data-name="Path 1328" d="M87.333,12h-2V9.333a9.333,9.333,0,0,0-18.667,0V12h-2a.666.666,0,0,0-.667.667V29.333A2.669,2.669,0,0,0,66.667,32H85.333A2.669,2.669,0,0,0,88,29.333V12.667A.666.666,0,0,0,87.333,12ZM68,9.333a8,8,0,1,1,16,0V12H82.667V9.333a6.667,6.667,0,0,0-13.333,0V12H68Zm13.333,0V12H70.667V9.333a5.333,5.333,0,0,1,10.667,0Zm5.333,20a1.335,1.335,0,0,1-1.333,1.333H66.667a1.335,1.335,0,0,1-1.333-1.333v-16H86.667Z" transform="translate(-64)" fill="#006400"/>
      </g>
    </g>
  </g>
</svg>
