<svg xmlns="http://www.w3.org/2000/svg" width="31.162" height="32" viewBox="0 0 31.162 32">
  <g id="settings_1_" data-name="settings (1)" transform="translate(-6.705)">
    <g id="Group_1420" data-name="Group 1420" transform="translate(6.705)">
      <g id="Group_1419" data-name="Group 1419" transform="translate(0)">
        <path id="Path_1254" data-name="Path 1254" d="M37.327,19.508l-2.941-2.3A11.214,11.214,0,0,0,34.455,16a11.579,11.579,0,0,0-.069-1.208l2.944-2.3a1.441,1.441,0,0,0,.348-1.837L34.619,5.361a1.443,1.443,0,0,0-1.769-.636L29.379,6.119A11.839,11.839,0,0,0,27.3,4.909l-.528-3.681A1.416,1.416,0,0,0,25.355,0H19.222A1.414,1.414,0,0,0,17.81,1.215L17.28,4.909A12.273,12.273,0,0,0,15.2,6.12l-3.48-1.4a1.418,1.418,0,0,0-1.756.625L6.9,10.648a1.43,1.43,0,0,0,.347,1.845l2.941,2.3A11.65,11.65,0,0,0,10.12,16c0,.367.023.757.067,1.208l-2.944,2.3A1.443,1.443,0,0,0,6.9,21.348L9.955,26.64a1.444,1.444,0,0,0,1.769.636l3.471-1.393a12.018,12.018,0,0,0,2.084,1.209l.528,3.68A1.416,1.416,0,0,0,19.22,32h6.133a1.414,1.414,0,0,0,1.412-1.215l.529-3.693a12.273,12.273,0,0,0,2.08-1.211l3.48,1.4a1.422,1.422,0,0,0,1.756-.625l3.075-5.319A1.441,1.441,0,0,0,37.327,19.508Zm-.807,1.173-3.176,5.357-3.817-1.533a.669.669,0,0,0-.648.085,11.046,11.046,0,0,1-2.444,1.419.666.666,0,0,0-.408.523l-.673,4.135L19.131,30.6l-.583-4.063a.669.669,0,0,0-.408-.523A10.624,10.624,0,0,1,15.7,24.6a.664.664,0,0,0-.407-.139.653.653,0,0,0-.249.048l-3.927,1.481L8.06,20.694a.113.113,0,0,1,.009-.137l3.236-2.529a.668.668,0,0,0,.251-.608,11.249,11.249,0,0,1-.1-1.42,11.518,11.518,0,0,1,.1-1.42.667.667,0,0,0-.251-.608L8.054,11.32,11.23,5.963,15.047,7.5a.665.665,0,0,0,.649-.085A10.964,10.964,0,0,1,18.14,5.992a.669.669,0,0,0,.407-.523l.675-4.136,6.224.072.581,4.064a.669.669,0,0,0,.408.523,10.584,10.584,0,0,1,2.439,1.415.662.662,0,0,0,.655.089l3.927-1.481,3.059,5.292a.111.111,0,0,1-.009.136l-3.236,2.529a.667.667,0,0,0-.251.608,11.34,11.34,0,0,1,.1,1.42,11.321,11.321,0,0,1-.1,1.42.668.668,0,0,0,.251.608L36.5,20.556A.105.105,0,0,1,36.52,20.681Z" transform="translate(-6.705)" fill="#006400"/>
        <path id="Path_1255" data-name="Path 1255" d="M156.019,149.333A6.667,6.667,0,1,0,162.685,156,6.674,6.674,0,0,0,156.019,149.333Zm0,12A5.333,5.333,0,1,1,161.352,156,5.339,5.339,0,0,1,156.019,161.333Z" transform="translate(-140.437 -140)" fill="#006400"/>
      </g>
    </g>
  </g>
</svg>
